G04*
G04 #@! TF.GenerationSoftware,Altium Limited,Altium Designer,20.0.2 (26)*
G04*
G04 Layer_Physical_Order=2*
G04 Layer_Color=16711680*
%FSLAX44Y44*%
%MOMM*%
G71*
G01*
G75*
%ADD27R,2.3000X1.4000*%
%ADD28O,2.3000X1.4000*%
%ADD29R,1.2000X1.2000*%
%ADD30C,1.2000*%
%ADD31C,5.5240*%
%ADD32O,2.5000X1.5000*%
%ADD33R,2.5000X1.5000*%
%ADD34R,1.5240X1.5240*%
%ADD35C,1.5240*%
%ADD36R,1.5000X2.5000*%
%ADD37O,1.5000X2.5000*%
%ADD38R,2.5000X1.2000*%
%ADD39O,2.5000X1.2000*%
%ADD40C,1.0000*%
%ADD41C,0.8000*%
%ADD42C,1.2540*%
D27*
X769620Y300990D02*
D03*
X751840Y435610D02*
D03*
D28*
X769620Y326390D02*
D03*
Y351790D02*
D03*
X751840Y486410D02*
D03*
Y461010D02*
D03*
D29*
X276860Y485140D02*
D03*
X441960Y372110D02*
D03*
D30*
X276860Y459740D02*
D03*
X391160Y439420D02*
D03*
X467360D02*
D03*
X537210Y393700D02*
D03*
Y455930D02*
D03*
X441960Y292110D02*
D03*
D31*
X784860Y556260D02*
D03*
X295910Y558800D02*
D03*
X297180Y281940D02*
D03*
D32*
X294640Y391630D02*
D03*
D33*
Y341630D02*
D03*
D34*
X367665Y438150D02*
D03*
D35*
Y539750D02*
D03*
X694690Y515620D02*
D03*
X695960Y417830D02*
D03*
X595630Y509270D02*
D03*
X621030Y510540D02*
D03*
X646430Y509270D02*
D03*
X691850Y372110D02*
D03*
X690880Y280670D02*
D03*
X727410Y373380D02*
D03*
X726440Y281940D02*
D03*
D36*
X420370Y534670D02*
D03*
D37*
X470370D02*
D03*
X520370D02*
D03*
D38*
X573320Y447040D02*
D03*
D39*
Y421640D02*
D03*
Y396240D02*
D03*
Y370840D02*
D03*
Y345440D02*
D03*
Y320040D02*
D03*
Y294640D02*
D03*
X655870Y447040D02*
D03*
X655320Y421640D02*
D03*
Y396240D02*
D03*
Y370840D02*
D03*
Y345440D02*
D03*
Y320040D02*
D03*
Y294640D02*
D03*
D40*
X327660Y521970D02*
D03*
Y448945D02*
D03*
D41*
X751840Y417830D02*
Y435610D01*
X741680Y407670D02*
X751840Y417830D01*
X294640Y391630D02*
Y441960D01*
X276860Y459740D02*
X294640Y441960D01*
X469031Y536009D02*
X470370Y534670D01*
X469031Y536009D02*
Y554259D01*
X464490Y558800D02*
X469031Y554259D01*
X440690Y372110D02*
X443230Y374650D01*
X440690Y372110D02*
Y374650D01*
X408940Y558800D02*
X464490D01*
X402590Y552450D02*
X408940Y558800D01*
X402590Y494030D02*
Y552450D01*
Y494030D02*
X419480Y477140D01*
X435990D01*
X721360Y465696D02*
Y519430D01*
X695960Y544830D02*
X721360Y519430D01*
X562610Y544830D02*
X695960D01*
X541020Y523240D02*
X562610Y544830D01*
X541020Y505460D02*
Y523240D01*
X420370Y534670D02*
X423870Y531170D01*
Y513390D02*
Y531170D01*
Y513390D02*
X431800Y505460D01*
X541020D01*
X435990Y477140D02*
X443230Y469900D01*
X367665Y408305D02*
X442595D01*
X367665Y404575D02*
Y433070D01*
Y404575D02*
Y408305D01*
X294640Y341630D02*
X299640D01*
X367665Y404575D01*
X408305Y324485D02*
X437920Y294870D01*
X269240Y328536D02*
Y366230D01*
Y328536D02*
X273926Y323850D01*
X407670D01*
X408305Y324485D01*
X291534Y391630D02*
X294640D01*
X288301Y388396D02*
X291534Y391630D01*
X288301Y385291D02*
Y388396D01*
X269240Y366230D02*
X288301Y385291D01*
X645160Y528320D02*
X680031D01*
X601586D02*
X645160D01*
Y510540D02*
X646430Y509270D01*
X645160Y510540D02*
Y528320D01*
X692731Y515620D02*
X694690D01*
X680031Y528320D02*
X692731Y515620D01*
X468125Y427225D02*
X524510Y370840D01*
X467360Y439420D02*
X468125Y438655D01*
Y427225D02*
Y438655D01*
X524510Y370840D02*
X573320D01*
X443230Y408940D02*
Y469900D01*
Y374650D02*
Y408940D01*
X442595Y408305D02*
X443230Y408940D01*
X753110Y487680D02*
X772160Y468630D01*
X437920Y294870D02*
X443010D01*
X758323Y350259D02*
X768089D01*
X743344Y335280D02*
X758323Y350259D01*
X594360Y521094D02*
X601586Y528320D01*
X726046Y461010D02*
X751840D01*
X721360Y465696D02*
X726046Y461010D01*
X519036Y472440D02*
X603250D01*
X514350Y467754D02*
X519036Y472440D01*
X603250D02*
X621030Y490220D01*
X594360Y510540D02*
Y521094D01*
Y510540D02*
X595630Y509270D01*
X772160Y354330D02*
Y468630D01*
X769620Y351790D02*
X772160Y354330D01*
X751840Y486410D02*
X753110Y487680D01*
X741680Y360286D02*
Y407670D01*
X709930Y266700D02*
Y335280D01*
X707390Y264160D02*
X709930Y266700D01*
X670560Y264160D02*
X707390D01*
X655320Y279400D02*
X670560Y264160D01*
X655320Y279400D02*
Y294640D01*
X736994Y355600D02*
X741680Y360286D01*
X702310Y355600D02*
X736994D01*
X689610Y342900D02*
X702310Y355600D01*
X709930Y335280D02*
X743344D01*
X768089Y350259D02*
X769620Y351790D01*
X751840Y435610D02*
X753110Y434340D01*
X689610Y281940D02*
Y342900D01*
Y281940D02*
X690880Y280670D01*
X712561Y386270D02*
X725451Y373380D01*
X677250Y386270D02*
X712561D01*
X663127Y372147D02*
X677250Y386270D01*
X659130Y372688D02*
X659671Y372147D01*
X663127D01*
X725451Y373380D02*
X727410D01*
X655320Y370840D02*
X657282D01*
X659130Y372688D01*
X727710Y283210D02*
X764934D01*
X768934Y300990D02*
X769620D01*
X764934Y296990D02*
X768934Y300990D01*
X764934Y283210D02*
Y296990D01*
X726440Y281940D02*
X727710Y283210D01*
X655320Y345440D02*
X661820D01*
X687105Y370725D01*
X690465D01*
X691850Y372110D01*
X655320Y421640D02*
X661820D01*
X573320Y294640D02*
X655320D01*
Y320040D01*
X627380Y325996D02*
Y374800D01*
X654555Y320805D02*
X655320Y320040D01*
X632571Y320805D02*
X654555D01*
X627380Y325996D02*
X632571Y320805D01*
X648820Y396240D02*
X655320D01*
X627380Y374800D02*
X648820Y396240D01*
X695960Y417830D02*
Y454660D01*
X599440Y421640D02*
X648196Y470396D01*
X680224D01*
X695960Y454660D01*
X573320Y421640D02*
X599440D01*
X537210Y393700D02*
Y425850D01*
X514350Y448710D02*
X537210Y425850D01*
X621030Y490220D02*
Y510540D01*
X514350Y448710D02*
Y467754D01*
X540832Y396240D02*
X573320D01*
X443010Y294870D02*
X443235Y294645D01*
X573315D01*
X573320Y294640D01*
X538292Y393700D02*
X540832Y396240D01*
X537210Y393700D02*
X538292D01*
X537210Y454660D02*
Y455930D01*
Y454660D02*
X544830Y447040D01*
X573320D01*
X648605Y439775D02*
Y445192D01*
X579670Y370840D02*
X648605Y439775D01*
X573320Y370840D02*
X579670D01*
X573320Y320040D02*
Y345440D01*
Y370840D01*
X648605Y445192D02*
X650452Y447040D01*
X655870D01*
X327660Y521970D02*
X391160Y458470D01*
Y439420D02*
Y458470D01*
X332729Y539750D02*
X367665D01*
X328043Y522353D02*
Y535064D01*
X332729Y539750D01*
X327660Y521970D02*
X328043Y522353D01*
X276860Y485140D02*
X312672Y449328D01*
X327277D01*
X327660Y448945D01*
X291140Y338130D02*
X294640Y341630D01*
D42*
X797560Y330200D02*
Y486410D01*
X711200Y572770D02*
X797560Y486410D01*
X553470Y572770D02*
X711200D01*
X520370Y539670D02*
X553470Y572770D01*
X520370Y534670D02*
Y539670D01*
X793750Y326390D02*
X797560Y330200D01*
X769620Y326390D02*
X793750D01*
M02*
