G04*
G04 #@! TF.GenerationSoftware,Altium Limited,Altium Designer,20.0.2 (26)*
G04*
G04 Layer_Color=8388736*
%FSLAX44Y44*%
%MOMM*%
G71*
G01*
G75*
%ADD13R,2.5032X1.6032*%
%ADD14O,2.5032X1.6032*%
%ADD15R,1.4032X1.4032*%
%ADD16C,1.4032*%
%ADD17C,5.7272*%
%ADD18O,2.7032X1.7032*%
%ADD19R,2.7032X1.7032*%
%ADD20R,1.7272X1.7272*%
%ADD21C,1.7272*%
%ADD22R,1.7032X2.7032*%
%ADD23O,1.7032X2.7032*%
%ADD24R,2.7032X1.4032*%
%ADD25O,2.7032X1.4032*%
%ADD26C,1.2032*%
D13*
X769620Y300990D02*
D03*
X751840Y435610D02*
D03*
D14*
X769620Y326390D02*
D03*
Y351790D02*
D03*
X751840Y486410D02*
D03*
Y461010D02*
D03*
D15*
X276860Y485140D02*
D03*
X441960Y372110D02*
D03*
D16*
X276860Y459740D02*
D03*
X391160Y439420D02*
D03*
X467360D02*
D03*
X537210Y393700D02*
D03*
Y455930D02*
D03*
X441960Y292110D02*
D03*
D17*
X784860Y556260D02*
D03*
X295910Y558800D02*
D03*
X297180Y281940D02*
D03*
D18*
X294640Y391630D02*
D03*
D19*
Y341630D02*
D03*
D20*
X367665Y438150D02*
D03*
D21*
Y539750D02*
D03*
X694690Y515620D02*
D03*
X695960Y417830D02*
D03*
X595630Y509270D02*
D03*
X621030Y510540D02*
D03*
X646430Y509270D02*
D03*
X691850Y372110D02*
D03*
X690880Y280670D02*
D03*
X727410Y373380D02*
D03*
X726440Y281940D02*
D03*
D22*
X420370Y534670D02*
D03*
D23*
X470370D02*
D03*
X520370D02*
D03*
D24*
X573320Y447040D02*
D03*
D25*
Y421640D02*
D03*
Y396240D02*
D03*
Y370840D02*
D03*
Y345440D02*
D03*
Y320040D02*
D03*
Y294640D02*
D03*
X655870Y447040D02*
D03*
X655320Y421640D02*
D03*
Y396240D02*
D03*
Y370840D02*
D03*
Y345440D02*
D03*
Y320040D02*
D03*
Y294640D02*
D03*
D26*
X327660Y521970D02*
D03*
Y448945D02*
D03*
M02*
