G04*
G04 #@! TF.GenerationSoftware,Altium Limited,Altium Designer,20.0.2 (26)*
G04*
G04 Layer_Color=2752767*
%FSLAX44Y44*%
%MOMM*%
G71*
G01*
G75*
%ADD43C,0.0508*%
%ADD44C,0.0677*%
D43*
X767588Y298958D02*
Y303022D01*
X771652D01*
Y298958D01*
X767588D01*
Y324358D02*
Y328422D01*
X771652D01*
Y324358D01*
X767588D01*
Y349758D02*
Y353822D01*
X771652D01*
Y349758D01*
X767588D01*
X749808Y484378D02*
Y488442D01*
X753872D01*
Y484378D01*
X749808D01*
Y458978D02*
Y463042D01*
X753872D01*
Y458978D01*
X749808D01*
Y433578D02*
Y437642D01*
X753872D01*
Y433578D01*
X749808D01*
X784860Y554228D02*
X782828Y558292D01*
X786892D01*
X784860Y554228D01*
X294640Y389598D02*
X295656Y390614D01*
X296672D01*
X295656Y391630D01*
X296672Y392646D01*
X295656D01*
X294640Y393662D01*
X293624Y392646D01*
X292608D01*
X293624Y391630D01*
X292608Y390614D01*
X293624D01*
X294640Y389598D01*
Y339598D02*
X295656Y340614D01*
X296672D01*
X295656Y341630D01*
X296672Y342646D01*
X295656D01*
X294640Y343662D01*
X293624Y342646D01*
X292608D01*
X293624Y341630D01*
X292608Y340614D01*
X293624D01*
X294640Y339598D01*
X389128Y437388D02*
X390144Y439420D01*
X389128Y441452D01*
X391160Y440436D01*
X393192Y441452D01*
X392176Y439420D01*
X393192Y437388D01*
X391160Y438404D01*
X389128Y437388D01*
X465328D02*
X466344Y439420D01*
X465328Y441452D01*
X467360Y440436D01*
X469392Y441452D01*
X468376Y439420D01*
X469392Y437388D01*
X467360Y438404D01*
X465328Y437388D01*
X366649Y437134D02*
Y436118D01*
X368681D01*
Y437134D01*
X369697D01*
Y439166D01*
X368681D01*
Y440182D01*
X366649D01*
Y439166D01*
X365633D01*
Y437134D01*
X366649D01*
Y538734D02*
Y537718D01*
X368681D01*
Y538734D01*
X369697D01*
Y540766D01*
X368681D01*
Y541782D01*
X366649D01*
Y540766D01*
X365633D01*
Y538734D01*
X366649D01*
X420370Y532638D02*
X421386Y533654D01*
X422402D01*
X421386Y534670D01*
X422402Y535686D01*
X421386D01*
X420370Y536702D01*
X419354Y535686D01*
X418338D01*
X419354Y534670D01*
X418338Y533654D01*
X419354D01*
X420370Y532638D01*
X470370D02*
X471386Y533654D01*
X472402D01*
X471386Y534670D01*
X472402Y535686D01*
X471386D01*
X470370Y536702D01*
X469354Y535686D01*
X468338D01*
X469354Y534670D01*
X468338Y533654D01*
X469354D01*
X470370Y532638D01*
X520370D02*
X521386Y533654D01*
X522402D01*
X521386Y534670D01*
X522402Y535686D01*
X521386D01*
X520370Y536702D01*
X519354Y535686D01*
X518338D01*
X519354Y534670D01*
X518338Y533654D01*
X519354D01*
X520370Y532638D01*
X571288Y445008D02*
X572304D01*
X573320Y446024D01*
X574336Y445008D01*
X575352D01*
Y446024D01*
X574336Y447040D01*
X575352Y448056D01*
Y449072D01*
X574336D01*
X573320Y448056D01*
X572304Y449072D01*
X571288D01*
Y448056D01*
X572304Y447040D01*
X571288Y446024D01*
Y445008D01*
Y419608D02*
X572304D01*
X573320Y420624D01*
X574336Y419608D01*
X575352D01*
Y420624D01*
X574336Y421640D01*
X575352Y422656D01*
Y423672D01*
X574336D01*
X573320Y422656D01*
X572304Y423672D01*
X571288D01*
Y422656D01*
X572304Y421640D01*
X571288Y420624D01*
Y419608D01*
Y394208D02*
X572304D01*
X573320Y395224D01*
X574336Y394208D01*
X575352D01*
Y395224D01*
X574336Y396240D01*
X575352Y397256D01*
Y398272D01*
X574336D01*
X573320Y397256D01*
X572304Y398272D01*
X571288D01*
Y397256D01*
X572304Y396240D01*
X571288Y395224D01*
Y394208D01*
Y368808D02*
X572304D01*
X573320Y369824D01*
X574336Y368808D01*
X575352D01*
Y369824D01*
X574336Y370840D01*
X575352Y371856D01*
Y372872D01*
X574336D01*
X573320Y371856D01*
X572304Y372872D01*
X571288D01*
Y371856D01*
X572304Y370840D01*
X571288Y369824D01*
Y368808D01*
Y343408D02*
X572304D01*
X573320Y344424D01*
X574336Y343408D01*
X575352D01*
Y344424D01*
X574336Y345440D01*
X575352Y346456D01*
Y347472D01*
X574336D01*
X573320Y346456D01*
X572304Y347472D01*
X571288D01*
Y346456D01*
X572304Y345440D01*
X571288Y344424D01*
Y343408D01*
Y318008D02*
X572304D01*
X573320Y319024D01*
X574336Y318008D01*
X575352D01*
Y319024D01*
X574336Y320040D01*
X575352Y321056D01*
Y322072D01*
X574336D01*
X573320Y321056D01*
X572304Y322072D01*
X571288D01*
Y321056D01*
X572304Y320040D01*
X571288Y319024D01*
Y318008D01*
Y292608D02*
X572304D01*
X573320Y293624D01*
X574336Y292608D01*
X575352D01*
Y293624D01*
X574336Y294640D01*
X575352Y295656D01*
Y296672D01*
X574336D01*
X573320Y295656D01*
X572304Y296672D01*
X571288D01*
Y295656D01*
X572304Y294640D01*
X571288Y293624D01*
Y292608D01*
X653838Y445008D02*
X654854D01*
X655870Y446024D01*
X656886Y445008D01*
X657902D01*
Y446024D01*
X656886Y447040D01*
X657902Y448056D01*
Y449072D01*
X656886D01*
X655870Y448056D01*
X654854Y449072D01*
X653838D01*
Y448056D01*
X654854Y447040D01*
X653838Y446024D01*
Y445008D01*
X653288Y419608D02*
X654304D01*
X655320Y420624D01*
X656336Y419608D01*
X657352D01*
Y420624D01*
X656336Y421640D01*
X657352Y422656D01*
Y423672D01*
X656336D01*
X655320Y422656D01*
X654304Y423672D01*
X653288D01*
Y422656D01*
X654304Y421640D01*
X653288Y420624D01*
Y419608D01*
Y394208D02*
X654304D01*
X655320Y395224D01*
X656336Y394208D01*
X657352D01*
Y395224D01*
X656336Y396240D01*
X657352Y397256D01*
Y398272D01*
X656336D01*
X655320Y397256D01*
X654304Y398272D01*
X653288D01*
Y397256D01*
X654304Y396240D01*
X653288Y395224D01*
Y394208D01*
Y368808D02*
X654304D01*
X655320Y369824D01*
X656336Y368808D01*
X657352D01*
Y369824D01*
X656336Y370840D01*
X657352Y371856D01*
Y372872D01*
X656336D01*
X655320Y371856D01*
X654304Y372872D01*
X653288D01*
Y371856D01*
X654304Y370840D01*
X653288Y369824D01*
Y368808D01*
Y343408D02*
X654304D01*
X655320Y344424D01*
X656336Y343408D01*
X657352D01*
Y344424D01*
X656336Y345440D01*
X657352Y346456D01*
Y347472D01*
X656336D01*
X655320Y346456D01*
X654304Y347472D01*
X653288D01*
Y346456D01*
X654304Y345440D01*
X653288Y344424D01*
Y343408D01*
Y318008D02*
X654304D01*
X655320Y319024D01*
X656336Y318008D01*
X657352D01*
Y319024D01*
X656336Y320040D01*
X657352Y321056D01*
Y322072D01*
X656336D01*
X655320Y321056D01*
X654304Y322072D01*
X653288D01*
Y321056D01*
X654304Y320040D01*
X653288Y319024D01*
Y318008D01*
Y292608D02*
X654304D01*
X655320Y293624D01*
X656336Y292608D01*
X657352D01*
Y293624D01*
X656336Y294640D01*
X657352Y295656D01*
Y296672D01*
X656336D01*
X655320Y295656D01*
X654304Y296672D01*
X653288D01*
Y295656D01*
X654304Y294640D01*
X653288Y293624D01*
Y292608D01*
X439928Y370078D02*
Y374142D01*
X443992D01*
Y370078D01*
X439928D01*
Y290078D02*
Y294142D01*
X443992D01*
Y290078D01*
X439928D01*
X325628Y519938D02*
X326644D01*
X327660Y520954D01*
X328676Y519938D01*
X329692D01*
Y520954D01*
X328676Y521970D01*
X329692Y522986D01*
Y524002D01*
X328676D01*
X327660Y522986D01*
X326644Y524002D01*
X325628D01*
Y522986D01*
X326644Y521970D01*
X325628Y520954D01*
Y519938D01*
Y446913D02*
X326644D01*
X327660Y447929D01*
X328676Y446913D01*
X329692D01*
Y447929D01*
X328676Y448945D01*
X329692Y449961D01*
Y450977D01*
X328676D01*
X327660Y449961D01*
X326644Y450977D01*
X325628D01*
Y449961D01*
X326644Y448945D01*
X325628Y447929D01*
Y446913D01*
X295910Y556768D02*
X293878Y560832D01*
X297942D01*
X295910Y556768D01*
X297180Y279908D02*
X295148Y283972D01*
X299212D01*
X297180Y279908D01*
X593598Y509270D02*
X595630Y511302D01*
X597662Y509270D01*
X595630Y507238D01*
X593598Y509270D01*
X618998Y510540D02*
X621030Y512572D01*
X623062Y510540D01*
X621030Y508508D01*
X618998Y510540D01*
X644398Y509270D02*
X646430Y511302D01*
X648462Y509270D01*
X646430Y507238D01*
X644398Y509270D01*
D44*
X278892Y485140D02*
G03*
X278892Y485140I-2032J0D01*
G01*
Y459740D02*
G03*
X278892Y459740I-2032J0D01*
G01*
X539242Y393700D02*
G03*
X539242Y393700I-2032J0D01*
G01*
Y455930D02*
G03*
X539242Y455930I-2032J0D01*
G01*
X696722Y515620D02*
G03*
X696722Y515620I-2032J0D01*
G01*
X697992Y417830D02*
G03*
X697992Y417830I-2032J0D01*
G01*
X693882Y372110D02*
G03*
X693882Y372110I-2032J0D01*
G01*
X692912Y280670D02*
G03*
X692912Y280670I-2032J0D01*
G01*
X729442Y373380D02*
G03*
X729442Y373380I-2032J0D01*
G01*
X728472Y281940D02*
G03*
X728472Y281940I-2032J0D01*
G01*
M02*
